<svg xmlns="http://www.w3.org/2000/svg" width="24" height="24" viewBox="0 0 24 24">
  <g fill="none" fill-rule="nonzero">
    <path fill="#ff00a4" fill-opacity="0" d="M0 0h24v24H0z"></path>
    <path fill="#ff00a4" d="M18.5 19a.5.5 0 0 0 .5-.5V9.394c0-.057.005-.114.014-.169l-6.44-4.208a1 1 0 0 0-1.147 0L4.986 9.225c.01.055.014.112.014.17V18.5a.5.5 0 0 0 .5.5H9v-5a1 1 0 0 1 1-1h4a1 1 0 0 1 1 1v5h3.5zm2.5-.5a2.5 2.5 0 0 1-2.5 2.5H14a1 1 0 0 1-1-1v-5h-2v5a1 1 0 0 1-1 1H5.5A2.5 2.5 0 0 1 3 18.5v-8.106c-.978 0-1.374-1.258-.573-1.819l7.853-5.197a3 3 0 0 1 3.44 0l7.853 5.197c.801.56.405 1.82-.573 1.82V18.5z"></path>
  </g>
</svg>