<svg width="24" height="24" viewBox="0 0 24 24" fill="none" xmlns="http://www.w3.org/2000/svg">
  <path fill-rule="evenodd" clip-rule="evenodd" d="M7.16663 4.73828C6.06206 4.73828 5.16663 5.63371 5.16663 6.73828V21.3509L6.8504 20.7896C7.07478 20.7148 7.31841 20.722 7.53802 20.8098L9.66663 21.6612L11.7952 20.8098C12.0336 20.7144 12.2996 20.7144 12.538 20.8098L14.6666 21.6612L16.7952 20.8098C17.0148 20.722 17.2585 20.7148 17.4829 20.7896L19.1666 21.3509V6.73828C19.1666 5.63371 18.2712 4.73828 17.1666 4.73828H7.16663ZM3.16663 6.73828C3.16663 4.52914 4.95749 2.73828 7.16663 2.73828H17.1666C19.3758 2.73828 21.1666 4.52914 21.1666 6.73828V22.7383C21.1666 23.0597 21.0121 23.3616 20.7513 23.5495C20.4906 23.7375 20.1553 23.7886 19.8504 23.687L17.1979 22.8028L15.038 23.6668C14.7996 23.7621 14.5336 23.7621 14.2952 23.6668L12.1666 22.8153L10.038 23.6668C9.79961 23.7621 9.53365 23.7621 9.29523 23.6668L7.13534 22.8028L4.48285 23.687C4.1779 23.7886 3.84269 23.7375 3.58192 23.5495C3.32115 23.3616 3.16663 23.0597 3.16663 22.7383V6.73828ZM8.16663 9.73828C8.16663 9.186 8.61434 8.73828 9.16663 8.73828H15.1666C15.7189 8.73828 16.1666 9.186 16.1666 9.73828C16.1666 10.2906 15.7189 10.7383 15.1666 10.7383H9.16663C8.61434 10.7383 8.16663 10.2906 8.16663 9.73828ZM8.16663 15.7383C8.16663 15.186 8.61434 14.7383 9.16663 14.7383H15.1666C15.7189 14.7383 16.1666 15.186 16.1666 15.7383C16.1666 16.2906 15.7189 16.7383 15.1666 16.7383H9.16663C8.61434 16.7383 8.16663 16.2906 8.16663 15.7383Z" fill="#404040"></path>
</svg>