<svg xmlns="http://www.w3.org/2000/svg" width="25" height="25" viewBox="0 0 25 25" name="shopping-cart" style="transform: scaleX(-1);">
  <path fill-rule="evenodd" clip-rule="evenodd" d="M15.5 14C18.2614 14 20.5 16.2386 20.5 19V21C20.5 21.5523 20.0523 22 19.5 22C18.9477 22 18.5 21.5523 18.5 21V19C18.5 17.3431 17.1569 16 15.5 16H9.5C7.84315 16 6.5 17.3431 6.5 19V21C6.5 21.5523 6.05228 22 5.5 22C4.94772 22 4.5 21.5523 4.5 21V19C4.5 16.2386 6.73858 14 9.5 14H15.5ZM12.5 2C15.2614 2 17.5 4.23858 17.5 7C17.5 9.76142 15.2614 12 12.5 12C9.73858 12 7.5 9.76142 7.5 7C7.5 4.23858 9.73858 2 12.5 2ZM12.5 4C10.8431 4 9.5 5.34315 9.5 7C9.5 8.65685 10.8431 10 12.5 10C14.1569 10 15.5 8.65685 15.5 7C15.5 5.34315 14.1569 4 12.5 4Z" fill="#404040"></path>
</svg>